<!-- icon666.com - MILLIONS vector ICONS FREE --><svg id="Capa_1" viewBox="0 0 425.2 425.2" xmlns="http://www.w3.org/2000/svg"><g><path d="m262.045 290.118-19.524-8.439v-11.463c27.046-5.693 46.81-19.471 54.99-39.191 4.518-10.889 7.553-23.018 9.524-33.025 3.563-.389 15.201-2.914 20.578-19.355 3.812-11.656 1.964-22.906-4.501-27.355-3.199-2.203-7.004-2.309-10.806-.439 2.404-4.439 14.904-28.564 14.884-50.176-.007-11.238-19.392-33.221-26.003-40.393l9.722-4.713c.682-.33 1.125-1.008 1.152-1.766.031-.76-.361-1.469-1.016-1.852l-19.641-11.432c-3.195-3.939-34.477-40.518-93.262-40.518-11.062 0-22.583 1.297-34.248 3.854-.935.205-1.603 1.031-1.609 1.988-.007.959.647 1.793 1.582 2.016l14.809 3.471c-13.203 6.619-47.676 24.906-61.186 41.797-.491.615-.586 1.459-.246 2.17.341.709 1.061 1.162 1.848 1.162h8.852c-7.355 9.783-28.066 38.371-29.352 51.77-1.037 10.83 12.299 38.059 14.689 42.828-3.928-2.068-7.884-2.045-11.191.232-6.461 4.449-8.313 15.699-4.5 27.355 5.623 17.197 18.106 19.174 21.025 19.4 2.042 10.039 5.135 22.229 9.599 32.98 8.5 20.498 27.718 34.039 55.259 39.451v10.883l-20.234 8.744c-1.804.48-17.724 4.951-36.161 17.08-.167.039-.337.064-.494.148-.29.158-.508.383-.686.635-22.805 15.324-49.03 42.354-57.036 87.936-.164.918.317 1.832 1.167 2.221.446.203 34.439 15.514 86.565 23.018.205.068.419.111.641.111.021 0 .044-.014.065-.014 7.768 1.104 15.931 2.035 24.445 2.713.048.004.092.027.144.027.027 0 .058-.006.088-.006 9.793.775 20.036 1.227 30.671 1.227 95.973 0 140.859-26.07 142.725-27.18.753-.449 1.135-1.33.955-2.189-16.318-77.385-76.119-100.443-94.283-105.711z"></path><path d="m264.012 372.155c.198.549.621.988 1.16 1.207l18.379 7.43-15.266 37.008c-6.496.805-13.383 1.49-20.649 2.027l17.243-124.525c7.583 2.531 19.102 7.27 31.452 15.582l-32.195 59.604c-.277.511-.322 1.118-.124 1.667z" fill="#575756"></path><path d="m158.666 417.292-15.054-36.5 18.375-7.43c.542-.219.965-.658 1.163-1.207s.15-1.156-.126-1.668l-32.697-60.541c14.321-9.258 26.907-13.721 31.848-15.258.024.115.048.229.075.344l17.253 124.625c-7.225-.623-14.17-1.431-20.837-2.365z" fill="#575756"></path><path d="m185.379 285.005 23.957 21.928-25.035 17.09c-5.473-6.936-16.037-21.566-18-29.645l-.15-1.064z" fill="#fff"></path><path d="m168.207 308.155c5.517 9.262 12.814 18.359 14.086 19.928.406.496.996.758 1.596.758.399 0 .801-.115 1.152-.357l10.281-7.018 8.033 11.178c-.331 1.154-15.082 52.93-15.542 87.631-1.385-.088-2.755-.184-4.123-.285z" fill="#fff"></path><path d="m207.314 331.118-8.603-11.969 13.915-9.496 13.295 9.075-8.647 12.39z" fill="#ec6463"></path><path d="m229.311 321.042 10.898 7.441c.354.242.757.357 1.156.357.597 0 1.19-.262 1.592-.758 1.483-1.826 11.14-13.863 16.63-24.484l-16.135 116.525c-2.482.16-5.005.305-7.573.428-.361-32.373-13.288-79.828-15.296-87.002z" fill="#fff"></path><path d="m240.952 324.022-24.949-17.031 24.84-21.568 18.338 7.926c-1.242 7.8-12.521 23.439-18.229 30.673z" fill="#fff"></path><path d="m320.786 154.667c4.201 2.893 6.554 11.617 2.926 22.701-4.116 12.588-12.217 15.623-15.876 16.359 1.241-6.938 1.923-12.406 2.216-15.031.378-.252.678-.621.825-1.088.914-2.926 2.141-4.943 3.42-6.35.743.322 3.338 1.732 3.059 5.59-.082 1.131.767 2.113 1.896 2.195.051.004.102.008.15.008 1.067 0 1.967-.826 2.046-1.902.303-4.164-1.603-6.908-3.563-8.461 1.436-.586 2.517-.594 2.653-.594 1.088.045 2.073-.832 2.125-1.959.051-1.129-.825-2.09-1.957-2.139-.29-.018-5.565-.164-9.878 4.984l.961-12.977c3.299-2.58 6.484-3.065 8.997-1.336z" fill="#f5b28a"></path><path d="m102.677 108.618c1.418-14.785 30.736-52.568 31.029-52.951.484-.619.569-1.455.225-2.162-.345-.703-1.057-1.148-1.841-1.148h-8.463c18.215-19.059 61.527-39.639 61.987-39.857.788-.371 1.255-1.203 1.167-2.07-.092-.867-.723-1.582-1.572-1.779l-10.993-2.58c8.136-1.307 16.152-1.965 23.927-1.965 59.706 0 89.964 38.844 90.265 39.236.164.215.368.395.6.531l16.643 9.684-8.756 4.248c-.59.285-1.009.836-1.125 1.479-.116.645.082 1.307.535 1.783 7.447 7.814 26.777 30.172 26.784 39.611.017 22.314-14.591 48.596-14.741 48.859-.146.262-.235.553-.256.852l-1.053 14.223c-2.827-10.406-6.929-25.275-9.572-33.746-2.97-9.523-12.35-30.475-22.399-34.461-2.329-.924-5.036-1.369-8.279-1.369-8.392 0-18.891 3.1-29.042 6.102-9.616 2.842-18.699 5.527-25.437 5.527-.846 0-1.64-.043-2.37-.133-3.979-.475-9.718-2.484-15.794-4.613-8.521-2.982-18.181-6.369-25.628-6.369-3.403 0-6.11.676-8.275 2.061-4.682 2.996-6.199 10.949-7.666 18.641-.989 5.176-2.008 10.525-3.85 13.049-1.838 2.527-6.315 5.313-10.642 8.008-4.855 3.02-9.442 5.873-11.75 9.025-3.256 4.438-5.954 11.75-7.87 18.102l-.961-13.758c-.021-.275-.095-.543-.218-.787-4.346-8.54-15.437-32.595-14.609-41.273z" fill="#7b4d4d"></path><g fill="#f5b28a"><path d="m101.49 177.368c-3.628-11.084-1.271-19.809 2.926-22.701 2.571-1.766 5.844-1.234 9.227 1.504.041.035.092.041.136.072l.921 13.152c-4.368-5.561-9.906-5.416-10.202-5.398-1.125.047-1.985.992-1.947 2.117.038 1.121 1.006 2.002 2.107 1.98.099 0 1.19.004 2.646.604-1.954 1.555-3.853 4.297-3.546 8.451.079 1.076.979 1.902 2.042 1.902.051 0 .103-.004.154-.008 1.128-.082 1.978-1.064 1.896-2.195-.279-3.793 2.244-5.225 3.048-5.578 1.279 1.4 2.513 3.416 3.424 6.338.181.572.6.996 1.108 1.229.307 2.475 1.047 7.969 2.356 14.971-3.441-.592-12.023-3.371-16.296-16.44z"></path><path d="m132.001 229.452c-8.913-21.486-12.262-48.977-12.626-52.154.559-2.59 4.641-20.867 10.267-28.543 1.841-2.514 6.298-5.285 10.608-7.965 4.879-3.035 9.486-5.902 11.794-9.074 2.38-3.27 3.44-8.82 4.562-14.699 1.241-6.52 2.653-13.908 5.845-15.951 1.466-.938 3.505-1.412 6.066-1.412 6.751 0 16.06 3.26 24.271 6.135 6.294 2.205 12.241 4.289 16.664 4.818.89.105 1.852.16 2.857.16 7.331 0 16.691-2.768 26.6-5.695 9.872-2.92 20.081-5.936 27.879-5.936 2.677 0 4.954.363 6.765 1.082 8.112 3.217 17.025 22.344 19.995 31.867 4.071 13.049 11.645 41.436 12.562 44.887-.337 3.379-3.297 30.568-12.388 52.48-10.281 24.785-40.509 39.584-80.86 39.584-41.556 0-70.273-14.058-80.861-39.584z"></path><path d="m212.862 273.138c9.036 0 17.584-.732 25.557-2.135v11.09l-25.734 22.344-24.346-22.279c-.021-.205-.044-.412-.129-.611-.14-.326-.372-.572-.634-.777v-9.564c7.82 1.272 16.26 1.932 25.286 1.932z"></path></g><path d="m126.9 312.235 31.425 58.186-18.164 7.344c-.508.205-.911.604-1.122 1.107-.211.502-.215 1.072-.007 1.576l14.914 36.158c-43.778-6.664-73.952-18.699-80.758-21.584 7.936-42.39 32.2-67.976 53.712-82.787z" fill="#575756"></path><path d="m191.912 420.528c.358-31.08 12.555-76.555 14.982-85.309h9.896c2.431 8.771 14.676 54.412 14.986 85.494-6.145.24-12.5.383-19.129.383-7.096.001-14.011-.2-20.735-.568z" fill="#ec6463"></path><path d="m272.977 417.187 15.153-36.738c.208-.504.205-1.074-.007-1.576-.211-.504-.614-.902-1.122-1.107l-18.164-7.344 30.882-57.176c20.8 14.965 43.076 40.189 52.272 81.947-5.836 3.083-31.741 15.544-79.014 21.994z" fill="#575756"></path><path d="m267.586 167.208c-4.409 0-7.979 3.57-7.979 7.977s3.57 7.975 7.979 7.975c4.402 0 7.972-3.568 7.972-7.975s-3.57-7.977-7.972-7.977z"></path><circle cx="156.849" cy="175.184" r="7.976"></circle><path d="m218.488 248.188c0-1.133-.917-2.049-2.049-2.049h-8.446c-1.136 0-2.053.916-2.053 2.049s.917 2.053 2.053 2.053h8.446c1.132 0 2.049-.92 2.049-2.053z"></path><path d="m266.034 195.819c-.801-.801-2.1-.801-2.901 0l-5.971 5.973c-.801.799-.801 2.098 0 2.898.402.402.927.602 1.453.602.525 0 1.05-.199 1.449-.602l5.97-5.971c.801-.798.801-2.099 0-2.9z"></path><path d="m271.112 197.765-5.971 5.971c-.801.801-.801 2.1 0 2.9.399.402.924.602 1.449.602s1.05-.201 1.453-.602l5.97-5.973c.801-.799.801-2.098 0-2.898-.801-.803-2.1-.803-2.901 0z"></path><path d="m159.29 195.821c-.801-.803-2.1-.803-2.901-.002l-5.971 5.973c-.801.799-.801 2.096 0 2.898.399.402.924.602 1.449.602s1.05-.199 1.453-.602l5.97-5.971c.801-.798.801-2.097 0-2.898z"></path><path d="m164.364 197.765-5.97 5.971c-.801.801-.801 2.1 0 2.9.402.402.927.602 1.453.602.525 0 1.05-.201 1.449-.602l5.971-5.973c.801-.799.801-2.098 0-2.898-.803-.803-2.101-.803-2.903 0z"></path><path d="m258.632 158.003c2.925-2.926 6.813-4.539 10.945-4.539s8.017 1.613 10.942 4.539c.402.398.928.6 1.453.6s1.05-.201 1.449-.6c.801-.803.801-2.102 0-2.902-3.7-3.699-8.617-5.738-13.844-5.738s-10.144 2.039-13.847 5.738c-.801.801-.801 2.1 0 2.902.801.801 2.101.799 2.902 0z"></path><path d="m154.854 149.362c-5.227 0-10.144 2.039-13.847 5.738-.801.801-.801 2.1 0 2.902.801.801 2.101.799 2.902 0 2.925-2.926 6.813-4.539 10.945-4.539s8.017 1.613 10.942 4.539c.402.398.928.6 1.453.6s1.05-.201 1.449-.6c.801-.803.801-2.102 0-2.902-3.7-3.699-8.617-5.738-13.844-5.738z"></path><path d="m233.655 221.923c.801-.801.801-2.1 0-2.902-.801-.799-2.101-.799-2.902 0-9.462 9.465-24.864 9.465-34.327 0-.801-.799-2.1-.799-2.901 0-.801.803-.801 2.102 0 2.902 5.534 5.531 12.8 8.299 20.066 8.299 7.267 0 14.533-2.768 20.064-8.299z"></path><path d="m225.891 19.134c.252.105 25.424 10.93 37.576 27.148.402.537 1.02.82 1.644.82.43 0 .859-.135 1.231-.41.903-.678 1.088-1.965.409-2.871-12.821-17.111-38.183-28.008-39.257-28.465-1.043-.443-2.247.045-2.687 1.088-.444 1.043.04 2.246 1.084 2.69z"></path><path d="m124.585 123.229c.283 0 .57-.059.842-.184.491-.219 12.064-5.549 15.143-17.303 2.564-9.797 19.869-29.727 38.759-25.861 7.024 1.438 12.463 3.926 17.724 6.334 9.466 4.338 17.646 8.078 30.381 3.119 18.464-7.184 51.332-16.139 64.061 4.652.593.965 1.855 1.268 2.82.676.968-.592 1.272-1.854.679-2.822-14.284-23.328-49.388-13.979-69.045-6.328-11.116 4.328-18.208 1.084-27.187-3.027-5.217-2.387-11.126-5.092-18.611-6.621-20.861-4.266-40.328 16.537-43.55 28.84-2.574 9.822-12.759 14.557-12.862 14.604-1.033.467-1.49 1.682-1.026 2.711.345.759 1.091 1.21 1.872 1.21z"></path><path d="m156.46 44.979c.416-.254 42.077-25.07 87.008.039.317.178.662.262.999.262.72 0 1.418-.379 1.793-1.049.553-.99.198-2.24-.791-2.793-47.001-26.266-90.711-.229-91.147.039-.965.59-1.272 1.854-.682 2.818.593.972 1.855 1.276 2.82.684z"></path><path d="m210.57 199.323h9.602c.753 0 1.449-.416 1.807-1.082.354-.664.321-1.473-.095-2.104-5.043-7.627-4.167-31.025-3.403-39.4.103-1.129-.729-2.127-1.858-2.227-1.142-.113-2.124.727-2.227 1.855-.109 1.172-2.346 26.516 2.462 38.854h-6.288c-1.135 0-2.053.918-2.053 2.051.001 1.131.918 2.053 2.053 2.053z"></path></g></svg>